<svg id="svg" version="1.1" xmlns="http://www.w3.org/2000/svg" xmlns:xlink="http://www.w3.org/1999/xlink" width="400" height="400" viewBox="0, 0, 400,400"><g id="svgg"><path id="path0" d="M197.078 43.120 C 195.901 44.297,195.489 46.411,196.085 48.216 C 196.894 50.668,197.326 50.781,205.898 50.781 C 211.572 50.781,213.678 50.909,213.967 51.270 C 214.270 51.648,218.850 61.299,219.785 63.529 C 219.887 63.772,218.509 63.389,216.724 62.677 C 205.474 58.193,199.071 59.549,188.086 68.742 C 174.269 80.305,168.044 81.005,139.271 74.233 C 126.713 71.277,120.359 70.331,107.813 69.547 C 91.761 68.544,87.891 69.031,87.891 72.053 C 87.891 74.391,88.025 74.435,104.297 77.370 C 118.327 79.901,117.359 79.478,123.141 85.608 C 125.775 88.401,127.984 90.835,128.050 91.017 C 128.223 91.491,124.721 90.616,115.636 87.913 C 105.467 84.888,103.590 84.966,102.125 88.473 C 100.357 92.705,102.484 95.992,108.201 97.862 L 110.346 98.563 107.224 99.628 C 80.312 108.803,70.543 139.566,87.668 161.208 C 110.232 189.722,155.859 173.334,155.859 136.716 L 155.859 132.502 158.496 132.042 C 164.506 130.994,164.513 130.995,165.740 132.969 C 168.196 136.919,172.552 137.598,190.466 136.821 C 197.862 136.500,198.440 136.419,200.489 135.416 C 207.264 132.102,210.586 121.666,208.019 111.762 C 207.424 109.465,207.430 109.332,208.185 108.300 C 208.874 107.358,219.336 85.440,220.664 82.156 C 221.105 81.064,225.840 78.439,226.381 78.986 C 226.772 79.382,229.297 85.372,229.297 85.905 C 229.297 86.263,228.491 87.340,227.507 88.298 C 219.582 96.007,212.569 112.689,216.241 115.095 C 218.146 116.343,219.047 115.566,221.884 110.223 C 225.226 103.932,232.628 94.270,233.291 95.335 C 233.350 95.430,234.574 97.904,236.011 100.833 L 238.623 106.159 234.643 110.208 C 207.349 137.983,233.881 184.012,271.660 174.429 C 292.722 169.086,305.338 145.929,298.427 125.298 C 291.381 104.263,267.938 92.947,248.006 100.960 C 247.445 101.186,241.797 90.042,241.797 88.709 C 241.797 88.234,244.279 87.287,247.914 86.377 C 259.695 83.425,269.032 84.298,281.735 89.540 C 285.387 91.046,285.580 91.084,286.520 90.468 C 288.665 89.063,287.755 87.093,283.505 83.942 C 271.460 75.011,256.110 73.263,241.489 79.158 C 239.667 79.892,238.122 80.440,238.057 80.374 C 237.991 80.309,237.403 79.065,236.751 77.611 L 235.564 74.966 240.146 72.737 C 246.048 69.865,245.969 70.567,241.629 59.515 C 237.237 48.332,237.471 48.488,229.942 51.705 C 227.611 52.701,225.640 53.516,225.562 53.516 C 225.484 53.516,224.518 51.714,223.417 49.512 C 219.741 42.162,219.796 42.188,207.417 42.188 C 198.023 42.188,198.010 42.189,197.078 43.120 M193.024 104.530 C 200.437 107.111,202.523 109.174,203.524 114.920 C 204.544 120.777,200.767 129.688,197.264 129.688 C 195.172 129.688,195.153 128.991,197.110 123.985 C 200.610 115.033,199.360 112.299,190.430 109.377 C 185.037 107.612,184.299 106.619,186.597 104.221 C 187.930 102.828,188.168 102.840,193.024 104.530 M124.153 111.572 C 129.332 112.918,135.489 117.173,138.457 121.456 C 139.899 123.536,140.075 123.437,132.498 124.835 L 125.985 126.036 124.297 124.965 C 115.327 119.277,104.102 126.245,104.102 137.500 C 104.102 154.387,128.202 156.144,131.367 139.488 L 131.807 137.177 137.148 136.167 C 144.537 134.769,143.902 134.550,143.580 138.379 C 141.629 161.570,115.452 171.833,99.409 155.697 C 80.749 136.928,98.680 104.951,124.153 111.572 M265.039 110.944 C 292.382 114.758,296.264 152.819,270.248 162.004 C 250.649 168.924,230.467 148.797,237.256 129.102 C 238.772 124.702,243.913 116.969,244.639 117.995 C 244.705 118.088,246.331 121.504,248.252 125.586 L 251.746 133.008 251.752 137.109 C 251.765 146.386,259.994 151.672,267.696 147.351 C 278.681 141.189,273.429 123.455,260.875 124.321 L 258.273 124.500 255.504 118.576 C 253.981 115.318,252.734 112.549,252.734 112.423 C 252.734 112.297,253.921 111.915,255.371 111.575 C 259.871 110.519,261.316 110.424,265.039 110.944 M156.746 116.456 C 158.729 116.932,160.402 117.357,160.464 117.400 C 160.843 117.662,159.490 119.582,158.820 119.733 C 158.373 119.834,156.820 120.152,155.367 120.439 L 152.727 120.962 150.875 117.805 C 149.857 116.069,148.972 114.538,148.909 114.402 C 148.846 114.267,149.772 114.479,150.968 114.873 C 152.163 115.268,154.763 115.980,156.746 116.456 M183.008 146.860 C 167.640 147.155,168.754 145.976,168.751 161.964 C 168.750 174.614,168.856 174.122,166.061 174.497 C 164.846 174.660,163.977 174.443,162.011 173.485 C 154.970 170.054,147.648 174.101,147.658 181.417 C 147.668 188.730,155.599 192.951,161.914 189.005 C 164.557 187.354,166.895 187.089,168.180 188.297 L 169.141 189.199 169.142 200.947 C 169.144 216.779,168.909 216.406,178.899 216.406 C 188.462 216.406,190.732 214.237,187.485 208.203 C 184.598 202.839,187.728 197.644,193.835 197.663 C 199.619 197.681,202.159 202.394,199.567 208.300 C 196.976 214.202,198.716 215.775,208.017 215.943 C 218.417 216.131,217.965 216.785,217.967 201.552 C 217.969 188.784,217.994 188.672,220.786 188.672 C 221.899 188.672,222.784 188.974,223.687 189.664 C 230.387 194.774,238.059 190.180,238.078 181.046 C 238.097 172.326,231.181 167.977,224.549 172.539 C 222.310 174.079,219.569 174.670,218.558 173.831 C 218.058 173.416,217.967 171.642,217.960 162.159 C 217.947 145.575,218.734 146.442,203.821 146.567 C 198.389 146.613,189.023 146.745,183.008 146.860 M322.266 235.865 C 315.137 237.728,311.529 242.410,311.526 249.805 C 311.521 257.854,314.997 261.405,326.676 265.283 C 333.698 267.615,335.448 269.451,334.392 273.375 C 332.647 279.856,320.794 278.376,319.137 271.471 C 318.719 269.725,318.545 269.482,317.823 269.638 C 317.366 269.737,315.366 270.139,313.379 270.532 C 309.312 271.335,309.423 271.177,310.372 274.820 C 312.324 282.317,317.716 285.947,326.875 285.932 C 337.911 285.913,344.299 280.482,344.325 271.094 C 344.346 263.378,341.681 260.376,331.802 256.987 C 323.555 254.158,321.484 252.624,321.484 249.347 C 321.484 242.317,332.303 241.612,334.589 248.494 C 334.935 249.537,335.298 250.391,335.395 250.391 C 335.735 250.391,343.503 248.033,343.652 247.885 C 343.904 247.632,342.932 244.428,342.119 242.834 C 338.920 236.563,330.672 233.668,322.266 235.865 M57.813 260.733 L 57.813 285.156 62.508 285.156 L 67.204 285.156 67.098 268.164 C 67.040 258.818,67.080 251.178,67.188 251.187 C 67.295 251.195,69.592 257.919,72.293 266.128 L 77.202 281.055 81.046 281.055 L 84.890 281.055 89.897 266.211 C 92.651 258.047,94.952 251.234,95.011 251.072 C 95.069 250.910,95.063 258.512,94.997 267.967 L 94.877 285.156 99.880 285.156 L 104.883 285.156 104.779 260.742 L 104.676 236.328 98.058 236.328 L 91.440 236.328 90.256 240.137 C 86.402 252.537,81.259 267.276,81.012 266.632 C 80.862 266.241,78.607 259.307,75.999 251.223 L 71.259 236.523 64.536 236.417 L 57.813 236.310 57.813 260.733 M115.312 244.043 C 117.689 248.286,120.665 253.550,121.926 255.741 C 123.187 257.932,124.219 259.801,124.219 259.894 C 124.219 260.043,113.570 279.171,111.079 283.496 L 110.123 285.156 115.719 285.156 L 121.316 285.156 125.404 276.784 C 127.652 272.179,129.580 268.404,129.688 268.395 C 129.795 268.385,131.884 272.153,134.330 276.767 L 138.776 285.156 144.554 285.156 L 150.332 285.156 143.138 272.833 L 135.944 260.509 136.969 258.477 C 137.533 257.360,140.432 252.012,143.411 246.593 C 146.391 241.175,148.828 236.649,148.828 236.535 C 148.828 236.421,146.353 236.328,143.327 236.328 L 137.826 236.328 134.252 243.752 C 132.287 247.836,130.522 251.125,130.332 251.061 C 130.141 250.998,128.292 247.661,126.223 243.646 L 122.461 236.346 116.726 236.337 L 110.992 236.328 115.312 244.043 M171.354 236.589 C 171.211 236.732,171.094 247.718,171.094 261.003 L 171.094 285.156 181.738 285.149 C 195.860 285.140,199.461 284.359,203.518 280.421 C 209.504 274.612,207.690 263.375,200.274 260.324 C 198.106 259.433,198.070 259.338,199.645 258.641 C 207.818 255.023,206.943 242.004,198.260 238.048 C 195.003 236.565,172.594 235.349,171.354 236.589 M214.453 260.742 L 214.453 285.156 219.531 285.156 L 224.609 285.156 224.609 260.742 L 224.609 236.328 219.531 236.328 L 214.453 236.328 214.453 260.742 M233.203 260.742 L 233.203 285.156 238.212 285.156 L 243.221 285.156 243.100 277.832 L 242.979 270.508 244.794 268.011 C 246.481 265.692,246.647 265.566,247.142 266.243 C 247.435 266.643,250.079 271.063,253.018 276.064 L 258.362 285.156 264.532 285.156 C 267.926 285.156,270.703 285.086,270.703 285.000 C 270.703 284.913,266.829 278.937,262.094 271.718 L 253.485 258.593 259.099 250.488 C 262.187 246.030,265.627 241.021,266.744 239.355 L 268.774 236.328 263.336 236.328 L 257.899 236.328 250.727 246.657 C 246.782 252.338,243.456 256.996,243.334 257.009 C 243.213 257.021,243.151 252.373,243.197 246.680 L 243.280 236.328 238.242 236.328 L 233.203 236.328 233.203 260.742 M275.391 260.737 L 275.391 285.156 290.443 285.156 L 305.495 285.156 305.384 280.957 L 305.273 276.758 295.583 276.563 L 285.892 276.367 285.817 270.801 L 285.742 265.234 294.434 265.234 L 303.125 265.234 303.125 260.945 L 303.125 256.656 294.508 256.550 L 285.892 256.445 285.817 250.879 L 285.742 245.312 295.423 245.312 L 305.104 245.313 304.993 240.918 L 304.883 236.523 290.137 236.421 L 275.391 236.319 275.391 260.737 M192.025 245.678 C 194.232 246.654,195.033 247.955,195.033 250.562 C 195.033 254.700,192.774 256.170,185.850 256.536 L 181.641 256.758 181.641 250.586 L 181.641 244.414 186.004 244.679 C 188.933 244.857,190.912 245.185,192.025 245.678 M192.670 264.666 C 196.990 266.156,198.368 271.527,195.184 274.468 C 193.500 276.024,191.066 276.563,185.723 276.563 L 181.641 276.563 181.641 270.058 L 181.641 263.553 186.230 263.790 C 188.837 263.925,191.620 264.304,192.670 264.666 M98.242 300.385 C 91.708 301.771,88.867 305.854,88.867 313.858 C 88.867 322.704,92.980 327.188,100.977 327.060 C 108.567 326.938,112.695 322.363,112.695 314.071 C 112.695 304.432,106.558 298.620,98.242 300.385 M278.411 300.533 C 267.597 302.934,265.619 321.117,275.640 326.020 C 279.624 327.969,284.271 327.434,287.207 324.687 L 288.281 323.682 288.281 325.122 L 288.281 326.563 290.430 326.563 L 292.578 326.563 292.578 319.727 L 292.578 312.891 286.719 312.891 L 280.859 312.891 280.859 314.844 L 280.859 316.797 284.229 316.797 L 287.598 316.797 287.349 318.066 C 286.531 322.244,280.985 324.522,277.645 322.051 C 274.139 319.457,273.451 310.632,276.448 306.697 C 279.162 303.134,285.061 303.581,286.657 307.471 L 287.305 309.050 289.433 308.809 C 291.980 308.521,291.936 308.556,291.617 307.101 C 290.514 302.080,284.629 299.152,278.411 300.533 M57.030 313.574 L 57.031 326.563 59.367 326.563 L 61.704 326.563 61.809 318.142 L 61.914 309.721 64.831 316.791 L 67.749 323.862 69.897 323.747 L 72.046 323.633 74.793 316.715 C 76.303 312.911,77.627 309.791,77.734 309.781 C 77.842 309.772,77.873 313.544,77.804 318.164 L 77.679 326.563 80.246 326.563 L 82.813 326.563 82.813 313.574 L 82.813 300.586 79.812 300.647 L 76.811 300.709 73.568 308.850 C 71.785 313.328,70.323 317.247,70.319 317.559 C 70.305 318.762,69.546 317.124,66.406 309.110 L 63.163 300.837 60.096 300.711 L 57.029 300.586 57.030 313.574 M155.463 300.586 C 155.460 300.586,155.416 306.431,155.366 313.574 L 155.273 326.563 157.707 326.563 L 160.141 326.563 160.246 318.099 L 160.352 309.635 163.234 316.731 L 166.116 323.828 168.312 323.825 L 170.508 323.823 173.208 317.087 C 174.693 313.383,176.056 310.185,176.235 309.980 C 176.415 309.776,176.563 313.424,176.563 318.086 L 176.563 326.563 179.102 326.563 L 181.641 326.563 181.639 319.629 C 181.639 315.815,181.525 309.971,181.388 306.641 L 181.138 300.586 178.295 300.713 L 175.453 300.841 174.439 303.252 C 173.882 304.579,172.297 308.477,170.918 311.914 C 168.498 317.947,168.395 318.123,167.972 316.992 C 167.731 316.348,166.182 312.418,164.529 308.260 L 161.523 300.699 158.496 300.643 C 156.831 300.611,155.466 300.586,155.463 300.586 M195.361 301.563 C 193.225 307.554,186.719 326.236,186.719 326.378 C 186.719 326.479,187.847 326.563,189.225 326.563 L 191.732 326.563 192.675 323.730 L 193.619 320.898 198.315 320.789 L 203.012 320.680 204.085 323.621 L 205.157 326.563 207.894 326.563 C 209.915 326.563,210.585 326.435,210.457 326.074 C 210.362 325.806,208.216 320.019,205.689 313.214 L 201.094 300.842 198.402 300.714 C 195.832 300.592,195.694 300.630,195.361 301.563 M215.619 300.586 C 215.617 300.586,215.573 306.431,215.522 313.574 L 215.430 326.563 217.864 326.563 L 220.298 326.563 220.403 317.610 L 220.508 308.657 225.920 317.610 L 231.332 326.563 234.221 326.563 L 237.109 326.563 237.109 313.672 L 237.109 300.781 234.570 300.781 L 232.031 300.781 232.031 309.829 L 232.031 318.876 226.652 309.791 L 221.273 300.705 218.449 300.646 C 216.895 300.613,215.622 300.586,215.619 300.586 M253.844 300.701 C 251.826 300.790,251.183 300.965,250.976 301.482 C 250.551 302.547,242.188 326.292,242.188 326.434 C 242.188 326.505,243.315 326.563,244.694 326.563 L 247.201 326.563 248.145 323.730 L 249.089 320.898 253.918 320.898 L 258.746 320.898 259.744 323.730 L 260.742 326.561 263.569 326.562 L 266.395 326.563 265.665 324.707 C 265.263 323.687,263.052 317.842,260.750 311.719 C 258.449 305.596,256.539 300.586,256.506 300.586 C 256.473 300.586,255.275 300.638,253.844 300.701 M299.218 313.574 L 299.219 326.563 307.813 326.563 L 316.406 326.563 316.406 324.414 L 316.406 322.266 310.352 322.266 L 304.297 322.266 304.297 318.945 L 304.297 315.625 309.570 315.625 L 314.844 315.625 314.844 313.477 L 314.844 311.328 309.570 311.328 L 304.297 311.328 304.297 308.008 L 304.297 304.688 310.275 304.688 L 316.254 304.688 316.232 302.749 L 316.211 300.810 307.714 300.698 L 299.218 300.586 299.218 313.574 M117.969 313.672 L 117.969 326.563 123.953 326.563 C 135.565 326.563,139.606 323.237,139.616 313.672 C 139.625 304.136,135.615 300.781,124.204 300.781 L 117.969 300.781 117.969 313.672 M322.266 313.672 L 322.266 326.563 325.022 326.563 L 327.779 326.563 327.659 321.679 L 327.539 316.795 329.688 316.831 L 331.836 316.866 334.222 321.617 L 336.609 326.367 339.398 326.482 C 340.932 326.545,342.188 326.521,342.188 326.429 C 342.188 326.155,337.059 317.025,336.678 316.621 C 336.160 316.072,336.253 315.625,336.884 315.625 C 338.662 315.625,341.383 311.620,341.395 308.984 C 341.425 302.736,338.456 300.802,328.809 300.790 L 322.266 300.781 322.266 313.672 M104.215 305.343 C 110.403 309.926,108.227 322.461,101.155 322.972 C 95.376 323.390,92.120 316.958,94.335 309.500 C 95.730 304.803,100.676 302.722,104.215 305.343 M130.326 305.593 C 133.096 307.034,134.379 309.626,134.366 313.757 C 134.348 319.721,131.861 322.266,126.049 322.266 L 123.242 322.266 123.332 313.574 C 123.382 308.794,123.426 304.813,123.430 304.729 C 123.449 304.339,129.331 305.076,130.326 305.593 M334.125 305.225 C 335.685 305.877,336.522 307.632,336.170 309.510 C 335.753 311.732,334.759 312.286,330.917 312.438 L 327.539 312.571 327.621 308.727 C 327.667 306.613,327.711 304.839,327.719 304.785 C 327.775 304.425,333.082 304.790,334.125 305.225 M200.007 311.545 C 200.863 314.091,201.563 316.314,201.563 316.486 C 201.563 316.657,200.050 316.797,198.200 316.797 C 195.674 316.797,194.884 316.676,195.021 316.309 C 195.122 316.040,195.880 313.762,196.706 311.245 C 197.531 308.729,198.262 306.726,198.329 306.793 C 198.397 306.860,199.152 308.999,200.007 311.545 M255.609 311.426 C 256.424 313.843,257.180 316.040,257.289 316.309 C 257.439 316.678,256.630 316.797,253.973 316.797 L 250.459 316.797 252.075 311.914 C 252.964 309.229,253.790 307.031,253.909 307.031 C 254.029 307.031,254.794 309.009,255.609 311.426 " stroke="none" fill="#141413" fill-rule="evenodd"></path><path id="path1" d="M0.000 200.000 L 0.000 400.000 200.000 400.000 L 400.000 400.000 400.000 200.000 L 400.000 0.000 200.000 0.000 L 0.000 0.000 0.000 200.000 M216.992 42.228 C 219.711 42.971,220.863 44.204,223.304 48.985 L 225.586 53.453 229.649 51.682 C 237.411 48.297,237.405 48.293,241.769 59.363 C 246.137 70.440,246.174 70.186,239.746 73.175 C 237.651 74.150,235.938 75.016,235.938 75.101 C 235.938 75.289,237.930 80.232,238.063 80.375 C 238.115 80.430,239.341 79.939,240.787 79.283 C 255.736 72.505,275.882 75.461,286.035 85.921 C 290.006 90.012,287.524 92.166,281.708 89.677 C 270.476 84.870,261.067 83.744,250.397 85.931 C 246.167 86.798,241.989 88.231,242.022 88.803 C 242.102 90.203,247.538 101.130,248.047 100.915 C 256.832 97.201,269.770 97.747,278.628 102.204 C 315.090 120.552,302.881 175.421,262.305 175.563 C 227.229 175.685,210.140 134.195,235.062 109.418 L 238.359 106.141 235.918 101.020 C 234.575 98.203,233.349 95.753,233.193 95.575 C 232.346 94.613,224.614 105.063,221.357 111.571 C 219.573 115.136,219.093 115.625,217.379 115.625 C 211.600 115.625,217.653 98.337,226.725 88.936 C 229.764 85.787,229.665 86.425,227.756 82.274 L 226.215 78.923 223.828 79.989 L 221.441 81.055 215.012 94.707 C 211.476 102.216,208.377 108.486,208.125 108.642 C 207.781 108.854,207.832 109.778,208.329 112.372 C 210.444 123.408,206.883 133.101,199.637 136.033 C 196.278 137.392,171.422 137.403,168.885 136.046 C 167.177 135.133,164.844 132.623,164.844 131.698 C 164.844 131.312,164.530 131.214,163.770 131.364 C 163.179 131.481,161.245 131.797,159.473 132.067 L 156.250 132.557 156.250 135.954 C 156.250 171.481,114.353 189.222,89.997 164.007 C 69.820 143.120,78.977 108.283,106.936 99.557 L 109.771 98.673 107.358 97.799 C 101.568 95.702,99.536 90.094,103.352 86.743 C 105.347 84.992,106.835 85.138,116.707 88.055 C 121.376 89.434,125.898 90.690,126.758 90.846 L 128.320 91.130 125.000 87.658 C 117.075 79.370,118.686 80.183,105.415 77.764 C 88.007 74.591,87.891 74.554,87.891 72.237 C 87.891 68.781,88.556 68.626,101.290 69.123 C 117.954 69.772,125.701 70.838,142.383 74.774 C 167.561 80.715,174.543 79.861,187.176 69.293 C 198.967 59.430,205.137 57.999,216.635 62.464 C 218.251 63.091,219.520 63.469,219.455 63.303 C 219.390 63.136,218.128 60.349,216.651 57.108 L 213.966 51.216 206.014 51.096 L 198.063 50.977 197.015 49.928 C 195.221 48.132,195.206 44.950,196.984 43.173 L 198.359 41.797 206.895 41.799 C 211.846 41.800,216.086 41.980,216.992 42.228 M186.697 104.384 C 184.506 106.782,185.172 107.526,191.323 109.556 C 199.439 112.235,200.706 115.498,197.101 124.431 C 195.290 128.919,195.284 129.090,196.911 129.491 C 200.852 130.464,204.859 119.509,202.934 113.025 C 201.639 108.665,199.676 107.041,192.847 104.680 C 187.466 102.820,188.098 102.850,186.697 104.384 M113.281 111.206 C 91.855 114.756,84.290 143.527,101.154 157.329 C 117.916 171.048,143.359 159.202,143.359 137.680 L 143.359 135.176 142.090 135.432 C 141.392 135.572,138.801 136.053,136.333 136.500 L 131.846 137.313 131.547 139.385 C 129.606 152.877,110.909 155.590,104.914 143.249 C 99.008 131.089,113.887 117.365,124.660 125.036 L 125.831 125.870 131.763 124.821 C 140.441 123.287,139.856 123.680,137.740 120.805 C 132.498 113.684,122.352 109.703,113.281 111.206 M256.819 111.337 C 255.951 111.509,254.700 111.885,254.039 112.173 L 252.837 112.695 255.681 118.630 L 258.525 124.565 259.955 124.171 C 267.983 121.954,276.219 132.573,273.146 141.178 C 268.567 154.004,249.046 149.208,251.574 135.878 L 251.956 133.865 248.165 125.862 L 244.373 117.860 242.721 119.765 C 227.980 136.756,239.750 163.039,262.109 163.062 C 282.412 163.083,294.597 140.623,283.752 123.170 C 278.216 114.262,266.971 109.321,256.819 111.337 M150.600 117.035 C 151.559 118.495,152.344 119.918,152.344 120.197 C 152.344 120.828,152.244 120.831,156.299 120.086 C 159.500 119.499,160.547 118.841,160.547 117.418 C 160.547 117.349,159.757 117.185,158.793 117.053 C 157.327 116.852,150.967 115.176,149.331 114.559 C 149.070 114.461,149.641 115.575,150.600 117.035 M215.775 147.300 C 217.903 148.974,217.969 149.404,217.969 161.639 C 217.969 175.683,218.471 176.499,224.559 172.334 C 231.549 167.552,239.902 173.959,238.328 182.896 C 236.965 190.630,230.010 194.180,224.140 190.137 C 221.982 188.650,220.497 188.337,219.115 189.076 C 218.395 189.462,218.359 190.007,218.359 200.612 C 218.359 216.524,218.558 216.211,208.464 216.211 C 201.107 216.211,200.492 216.060,199.199 213.940 C 198.136 212.197,198.248 210.649,199.652 207.649 C 202.685 201.167,196.782 195.362,190.332 198.485 C 186.477 200.351,185.497 203.924,187.648 208.276 C 189.232 211.483,189.315 212.045,188.470 213.825 C 187.370 216.143,186.401 216.406,178.957 216.406 L 172.293 216.406 170.922 215.202 C 168.911 213.437,168.755 212.339,168.752 199.980 C 168.751 191.830,168.624 188.702,168.281 188.359 C 167.318 187.396,164.077 187.800,161.979 189.146 C 154.351 194.041,144.666 186.020,148.153 177.695 C 150.300 172.571,156.522 170.468,161.614 173.145 C 163.044 173.896,164.238 174.219,165.590 174.219 C 168.849 174.219,168.750 174.611,168.750 161.671 C 168.750 148.204,168.799 148.018,172.633 146.855 C 175.317 146.040,214.691 146.447,215.775 147.300 M333.559 235.768 C 338.717 237.300,341.880 240.556,343.490 245.990 L 344.095 248.036 340.791 249.043 C 335.142 250.767,335.027 250.761,334.485 248.734 C 332.653 241.887,321.484 242.505,321.484 249.453 C 321.484 252.241,324.197 254.265,330.859 256.447 C 343.486 260.582,347.941 268.307,343.151 277.761 C 337.820 288.280,318.437 289.401,312.218 279.550 C 310.523 276.866,308.999 271.094,309.984 271.094 C 310.104 271.094,312.150 270.654,314.529 270.117 C 316.908 269.580,318.896 269.141,318.947 269.141 C 318.998 269.141,319.127 269.917,319.234 270.867 C 320.150 279.001,334.375 279.778,334.375 271.693 C 334.375 268.704,332.932 267.540,326.568 265.395 C 314.662 261.382,311.527 258.173,311.525 250.000 C 311.521 238.891,321.775 232.268,333.559 235.768 M76.161 251.270 C 78.810 259.487,81.060 266.361,81.162 266.545 C 81.264 266.729,83.581 260.049,86.311 251.701 L 91.276 236.523 98.177 236.417 L 105.078 236.310 105.078 260.733 L 105.078 285.156 100.000 285.156 L 94.922 285.156 94.922 268.489 L 94.922 251.823 89.950 266.536 L 84.978 281.250 81.058 281.250 L 77.138 281.250 73.432 270.228 C 71.394 264.166,69.166 257.442,68.481 255.286 L 67.235 251.367 67.212 268.359 L 67.189 285.352 62.305 285.232 L 57.422 285.112 57.422 260.720 L 57.422 236.328 64.383 236.328 L 71.344 236.328 76.161 251.270 M125.164 241.309 C 126.547 244.048,128.297 247.432,129.054 248.828 L 130.430 251.367 134.038 243.848 L 137.647 236.328 143.461 236.328 L 149.276 236.328 148.107 238.379 C 144.682 244.385,136.663 259.288,136.489 259.969 C 136.316 260.650,148.719 282.808,150.031 284.160 C 151.043 285.204,150.245 285.347,144.471 285.156 L 138.550 284.961 134.216 276.861 C 131.833 272.405,129.795 268.770,129.688 268.782 C 129.580 268.794,127.694 272.483,125.495 276.980 L 121.499 285.156 115.827 285.156 C 112.708 285.156,110.156 285.092,110.156 285.013 C 110.156 284.934,113.255 279.353,117.043 272.610 C 120.831 265.868,123.933 260.176,123.936 259.961 C 123.940 259.746,121.017 254.402,117.440 248.084 C 113.864 241.767,110.938 236.537,110.938 236.463 C 110.938 236.389,113.573 236.328,116.794 236.328 L 122.651 236.328 125.164 241.309 M197.461 237.459 C 206.586 241.039,208.327 252.830,200.541 258.318 L 198.850 259.510 200.404 260.206 C 209.859 264.439,209.530 278.605,199.870 283.157 C 196.070 284.949,194.235 285.156,182.207 285.156 L 171.094 285.156 171.094 260.717 L 171.094 236.277 183.105 236.408 C 194.633 236.534,195.212 236.576,197.461 237.459 M224.610 260.840 L 224.611 285.352 219.337 285.233 L 214.063 285.114 214.063 260.721 L 214.063 236.328 219.336 236.328 L 224.609 236.328 224.610 260.840 M243.451 246.453 L 243.555 256.578 250.586 246.551 L 257.617 236.523 263.184 236.415 C 266.245 236.355,268.742 236.443,268.733 236.610 C 268.723 236.777,265.328 241.801,261.187 247.775 L 253.659 258.636 257.049 263.790 C 258.914 266.626,262.831 272.593,265.754 277.051 L 271.068 285.156 264.648 285.156 L 258.229 285.156 253.090 276.465 C 250.264 271.685,247.656 267.289,247.294 266.697 L 246.637 265.620 244.998 267.995 L 243.359 270.370 243.359 277.763 L 243.359 285.156 238.281 285.156 L 233.203 285.156 233.203 260.742 L 233.203 236.328 238.275 236.328 L 243.346 236.328 243.451 246.453 M305.078 240.820 L 305.078 245.313 295.508 245.313 L 285.938 245.313 285.938 250.774 L 285.938 256.235 294.629 256.340 L 303.320 256.445 303.320 260.742 L 303.320 265.039 294.629 265.144 L 285.938 265.249 285.937 270.808 L 285.937 276.367 294.824 276.258 C 306.553 276.113,305.469 275.644,305.469 280.867 L 305.469 285.156 290.430 285.156 L 275.391 285.156 275.391 260.742 L 275.391 236.328 290.234 236.328 L 305.078 236.328 305.078 240.820 M181.641 250.545 L 181.641 256.250 185.449 256.248 C 192.106 256.244,194.513 254.925,194.830 251.106 C 195.205 246.584,193.294 245.225,186.230 244.991 L 181.641 244.840 181.641 250.545 M181.641 270.266 L 181.641 276.563 184.863 276.560 C 193.483 276.552,196.654 274.934,196.650 270.546 C 196.646 265.956,194.160 264.365,186.621 264.127 L 181.641 263.970 181.641 270.266 M106.520 301.404 C 115.448 305.970,115.159 322.196,106.079 326.203 C 99.601 329.062,91.815 326.202,89.511 320.117 C 84.696 307.399,95.341 295.687,106.520 301.404 M285.481 300.603 C 290.392 302.061,294.079 308.289,290.333 308.798 C 289.312 308.937,288.169 309.135,287.793 309.239 C 287.417 309.343,287.109 309.223,287.109 308.972 C 287.109 304.466,279.333 302.750,276.560 306.644 C 274.537 309.485,274.125 315.682,275.718 319.285 C 278.056 324.570,285.502 323.965,287.110 318.358 L 287.445 317.188 284.152 317.188 L 280.859 317.188 280.859 315.039 L 280.859 312.891 286.719 312.891 L 292.578 312.891 292.578 319.941 L 292.578 326.992 290.332 326.875 L 288.086 326.758 288.223 325.212 L 288.361 323.665 286.786 325.088 C 281.888 329.513,273.225 327.156,270.257 320.591 C 269.045 317.912,268.921 310.172,270.049 307.617 C 272.806 301.374,278.841 298.631,285.481 300.603 M66.407 308.691 C 68.192 313.257,69.734 317.142,69.835 317.325 C 69.935 317.508,70.672 315.926,71.471 313.809 C 72.271 311.693,73.788 307.808,74.842 305.177 L 76.758 300.392 79.986 300.391 L 83.214 300.391 83.111 313.574 L 83.008 326.758 80.371 326.873 L 77.734 326.989 77.733 318.475 L 77.731 309.961 74.899 316.992 L 72.067 324.023 69.904 324.138 L 67.740 324.253 64.827 317.224 L 61.914 310.195 61.809 318.574 L 61.704 326.953 59.172 326.953 L 56.641 326.953 56.641 313.932 C 56.641 299.046,56.291 300.391,60.162 300.391 L 63.162 300.391 66.407 308.691 M130.958 300.932 C 137.059 302.367,140.120 307.121,139.762 314.607 C 139.335 323.552,135.650 326.474,124.316 326.851 L 117.969 327.063 117.969 313.727 L 117.969 300.391 123.340 300.397 C 126.467 300.400,129.650 300.624,130.958 300.932 M164.844 308.691 C 166.629 313.257,168.175 317.148,168.280 317.338 C 168.385 317.528,169.586 314.892,170.948 311.479 C 172.311 308.066,173.887 304.175,174.452 302.832 L 175.479 300.391 178.560 300.391 L 181.641 300.391 181.641 313.672 L 181.641 326.953 178.891 326.953 L 176.142 326.953 176.255 318.573 C 176.317 313.965,176.264 310.317,176.137 310.468 C 176.011 310.619,174.692 313.772,173.207 317.474 L 170.508 324.207 168.312 324.213 L 166.116 324.219 163.234 317.122 L 160.352 310.025 160.246 318.489 L 160.141 326.953 157.610 326.953 L 155.078 326.953 155.078 313.672 L 155.078 300.391 158.339 300.391 L 161.599 300.391 164.844 308.691 M205.866 313.184 C 208.502 320.220,210.741 326.196,210.840 326.465 C 210.975 326.828,210.271 326.953,208.089 326.953 L 205.157 326.953 204.085 324.012 L 203.012 321.071 198.315 321.180 L 193.619 321.289 192.675 324.121 L 191.732 326.953 188.988 326.953 C 186.955 326.953,186.292 326.827,186.429 326.465 C 186.530 326.196,188.575 320.373,190.971 313.523 C 193.368 306.674,195.424 300.917,195.539 300.730 C 195.655 300.543,196.947 300.391,198.411 300.391 L 201.072 300.391 205.866 313.184 M226.659 309.479 L 232.030 318.555 232.031 309.473 L 232.031 300.391 234.570 300.391 L 237.109 300.391 237.109 313.672 L 237.109 326.953 234.261 326.953 L 231.412 326.953 225.960 317.969 L 220.508 308.984 220.403 317.969 L 220.298 326.953 217.766 326.953 L 215.234 326.953 215.234 313.672 L 215.234 300.391 218.262 300.397 L 221.289 300.404 226.659 309.479 M261.572 313.436 C 264.231 320.503,266.406 326.444,266.406 326.637 C 266.406 326.830,265.136 326.936,263.583 326.873 L 260.760 326.758 259.711 324.023 L 258.662 321.289 253.992 321.180 L 249.323 321.071 248.912 322.156 C 248.686 322.754,248.199 324.077,247.830 325.098 L 247.159 326.953 244.436 326.953 C 241.999 326.953,241.742 326.881,241.987 326.270 C 242.138 325.894,244.180 320.137,246.526 313.477 C 248.872 306.816,250.875 301.140,250.976 300.862 C 251.109 300.497,251.938 300.388,253.949 300.471 L 256.737 300.586 261.572 313.436 M316.406 302.734 L 316.406 305.078 310.449 305.077 L 304.492 305.076 304.620 308.202 L 304.747 311.328 309.795 311.328 L 314.844 311.328 314.844 313.672 L 314.844 316.016 309.668 316.016 L 304.492 316.016 304.492 319.141 L 304.492 322.266 310.449 322.266 L 316.406 322.266 316.406 324.617 L 316.406 326.968 307.715 326.863 L 299.023 326.758 298.921 313.574 L 298.818 300.391 307.612 300.391 L 316.406 300.391 316.406 302.734 M335.652 300.930 C 342.788 303.077,343.690 313.325,336.959 315.765 C 336.293 316.006,336.279 316.097,336.818 316.707 C 337.368 317.331,342.578 326.462,342.578 326.803 C 342.578 326.885,341.270 326.953,339.672 326.953 L 336.766 326.953 334.106 321.880 L 331.445 316.807 329.590 316.802 L 327.734 316.797 327.734 321.875 L 327.734 326.953 325.000 326.953 L 322.266 326.953 322.266 313.672 L 322.266 300.391 328.063 300.391 C 331.867 300.391,334.476 300.576,335.652 300.930 M98.679 304.684 C 92.820 306.527,92.081 319.302,97.667 322.194 C 103.087 324.999,107.227 321.309,107.227 313.672 C 107.227 306.745,103.750 303.089,98.679 304.684 M123.438 313.722 L 123.438 322.366 126.508 322.188 C 132.088 321.865,134.161 319.562,134.173 313.672 C 134.185 307.735,131.686 305.078,126.089 305.078 L 123.438 305.078 123.438 313.722 M327.734 308.839 L 327.734 312.600 330.863 312.419 C 334.874 312.187,335.938 311.377,335.938 308.554 C 335.938 305.811,334.855 305.078,330.807 305.078 L 327.734 305.078 327.734 308.839 M196.743 311.620 C 195.956 314.145,195.311 316.343,195.312 316.504 C 195.312 316.665,196.719 316.797,198.438 316.797 C 200.156 316.797,201.563 316.721,201.563 316.627 C 201.563 316.427,198.377 307.272,198.257 307.128 C 198.212 307.074,197.531 309.095,196.743 311.620 M252.382 311.448 C 251.651 313.853,250.973 316.040,250.875 316.309 C 250.742 316.674,251.497 316.797,253.864 316.797 C 255.606 316.797,257.031 316.665,257.031 316.505 C 257.031 316.016,254.217 307.636,253.955 307.346 C 253.821 307.197,253.113 309.043,252.382 311.448 " stroke="none" fill="#fbfbfb" fill-rule="evenodd"></path><path id="path2" d="M179.597 146.767 C 180.299 146.854,181.354 146.853,181.941 146.763 C 182.528 146.674,181.953 146.603,180.664 146.605 C 179.375 146.608,178.895 146.681,179.597 146.767 M168.921 200.781 C 168.921 206.689,168.976 209.106,169.042 206.152 C 169.108 203.198,169.108 198.364,169.042 195.410 C 168.976 192.456,168.921 194.873,168.921 200.781 M218.107 193.555 C 218.106 195.488,218.172 196.329,218.254 195.422 C 218.336 194.515,218.337 192.933,218.256 191.906 C 218.176 190.879,218.109 191.621,218.107 193.555 M211.035 216.295 C 211.626 216.385,212.593 216.385,213.184 216.295 C 213.774 216.206,213.291 216.133,212.109 216.133 C 210.928 216.133,210.444 216.206,211.035 216.295 M290.310 256.541 C 292.608 256.610,296.475 256.610,298.904 256.542 C 301.333 256.473,299.453 256.417,294.727 256.416 C 290.000 256.416,288.013 256.472,290.310 256.541 M326.469 286.214 C 326.955 286.307,327.658 286.304,328.032 286.206 C 328.405 286.108,328.008 286.032,327.148 286.036 C 326.289 286.040,325.983 286.120,326.469 286.214 M298.912 313.942 C 298.866 320.858,298.960 326.598,299.121 326.698 C 299.282 326.798,299.369 323.161,299.314 318.616 C 299.125 302.914,298.996 301.414,298.912 313.942 M56.781 310.156 C 56.781 312.197,56.847 313.032,56.928 312.012 C 57.008 310.991,57.008 309.321,56.928 308.301 C 56.847 307.280,56.781 308.115,56.781 310.156 M82.980 317.188 C 82.980 322.236,83.036 324.302,83.104 321.777 C 83.172 319.253,83.172 315.122,83.104 312.598 C 83.036 310.073,82.980 312.139,82.980 317.188 M282.715 317.083 C 283.628 317.165,285.122 317.165,286.035 317.083 C 286.948 317.001,286.201 316.933,284.375 316.933 C 282.549 316.933,281.802 317.001,282.715 317.083 M69.043 324.104 C 69.526 324.197,70.317 324.197,70.801 324.104 C 71.284 324.011,70.889 323.935,69.922 323.935 C 68.955 323.935,68.560 324.011,69.043 324.104 M167.285 324.097 C 167.661 324.196,168.276 324.196,168.652 324.097 C 169.028 323.999,168.721 323.919,167.969 323.919 C 167.217 323.919,166.909 323.999,167.285 324.097 " stroke="none" fill="#969695" fill-rule="evenodd"></path><path id="path3" d="M202.832 42.088 C 205.142 42.157,208.921 42.157,211.230 42.088 C 213.540 42.019,211.650 41.963,207.031 41.963 C 202.412 41.963,200.522 42.019,202.832 42.088 M203.203 51.072 C 205.072 51.143,208.236 51.144,210.234 51.073 C 212.232 51.002,210.703 50.943,206.836 50.943 C 202.969 50.942,201.334 51.000,203.203 51.072 M91.504 69.019 C 91.880 69.118,92.495 69.118,92.871 69.019 C 93.247 68.921,92.939 68.841,92.188 68.841 C 91.436 68.841,91.128 68.921,91.504 69.019 M256.738 75.660 C 257.114 75.758,257.729 75.758,258.105 75.660 C 258.481 75.562,258.174 75.481,257.422 75.481 C 256.670 75.481,256.362 75.562,256.738 75.660 M234.354 110.059 L 233.008 111.523 234.473 110.177 C 235.836 108.924,236.117 108.594,235.819 108.594 C 235.754 108.594,235.094 109.253,234.354 110.059 M116.509 110.827 C 117.103 110.917,117.982 110.915,118.462 110.822 C 118.943 110.729,118.457 110.656,117.383 110.659 C 116.309 110.662,115.916 110.737,116.509 110.827 M260.840 110.823 C 261.323 110.916,262.114 110.916,262.598 110.823 C 263.081 110.729,262.686 110.653,261.719 110.653 C 260.752 110.653,260.356 110.729,260.840 110.823 M203.614 117.383 C 203.618 118.242,203.698 118.548,203.792 118.062 C 203.885 117.576,203.882 116.873,203.784 116.499 C 203.686 116.126,203.610 116.523,203.614 117.383 M155.971 136.133 C 155.974 137.207,156.050 137.600,156.140 137.006 C 156.229 136.413,156.227 135.534,156.134 135.053 C 156.042 134.573,155.968 135.059,155.971 136.133 M143.471 136.914 C 143.474 137.988,143.550 138.381,143.640 137.788 C 143.729 137.194,143.727 136.315,143.634 135.834 C 143.542 135.354,143.468 135.840,143.471 136.914 M188.978 137.007 C 190.113 137.086,191.871 137.086,192.884 137.005 C 193.897 136.925,192.969 136.860,190.820 136.861 C 188.672 136.862,187.843 136.928,188.978 137.007 M186.035 146.774 C 187.485 146.849,189.858 146.849,191.309 146.774 C 192.759 146.699,191.572 146.637,188.672 146.637 C 185.771 146.637,184.585 146.699,186.035 146.774 M135.718 155.957 L 134.570 157.227 135.840 156.079 C 137.023 155.010,137.289 154.688,136.987 154.688 C 136.920 154.688,136.349 155.259,135.718 155.957 M156.157 172.151 C 156.643 172.245,157.346 172.241,157.719 172.143 C 158.093 172.046,157.695 171.969,156.836 171.974 C 155.977 171.978,155.671 172.058,156.157 172.151 M218.132 204.297 C 218.132 208.486,218.190 210.200,218.260 208.105 C 218.330 206.011,218.330 202.583,218.260 200.488 C 218.190 198.394,218.132 200.107,218.132 204.297 M57.606 260.742 C 57.606 274.277,57.655 279.758,57.715 272.921 C 57.775 266.084,57.775 255.010,57.715 248.312 C 57.655 241.613,57.606 247.207,57.606 260.742 M104.871 260.547 C 104.871 273.975,104.920 279.468,104.980 272.754 C 105.040 266.040,105.040 255.054,104.980 248.340 C 104.920 241.626,104.871 247.119,104.871 260.547 M214.246 260.742 C 214.246 274.277,214.295 279.758,214.355 272.921 C 214.415 266.084,214.415 255.010,214.355 248.312 C 214.295 241.613,214.246 247.207,214.246 260.742 M182.910 244.816 C 183.716 244.900,185.034 244.900,185.840 244.816 C 186.646 244.732,185.986 244.663,184.375 244.663 C 182.764 244.663,182.104 244.732,182.910 244.816 M242.969 255.664 C 242.969 256.416,243.109 257.031,243.281 257.031 C 243.453 257.031,243.521 256.416,243.434 255.664 C 243.346 254.912,243.205 254.297,243.121 254.297 C 243.037 254.297,242.969 254.912,242.969 255.664 M183.105 256.536 C 184.019 256.618,185.513 256.618,186.426 256.536 C 187.339 256.454,186.592 256.386,184.766 256.386 C 182.939 256.386,182.192 256.454,183.105 256.536 M183.313 263.959 C 184.340 264.040,185.922 264.039,186.828 263.957 C 187.735 263.875,186.895 263.809,184.961 263.811 C 183.027 263.812,182.286 263.879,183.313 263.959 M243.122 276.172 C 243.122 279.072,243.183 280.259,243.258 278.809 C 243.334 277.358,243.334 274.985,243.258 273.535 C 243.183 272.085,243.122 273.271,243.122 276.172 M58.691 300.675 C 59.497 300.759,60.815 300.759,61.621 300.675 C 62.427 300.591,61.768 300.522,60.156 300.522 C 58.545 300.522,57.886 300.591,58.691 300.675 M78.409 300.673 C 79.103 300.759,80.333 300.760,81.144 300.676 C 81.954 300.591,81.387 300.521,79.883 300.519 C 78.379 300.517,77.716 300.586,78.409 300.673 M120.410 300.680 C 121.860 300.755,124.233 300.755,125.684 300.680 C 127.134 300.605,125.947 300.544,123.047 300.544 C 120.146 300.544,118.960 300.605,120.410 300.680 M156.925 300.673 C 157.618 300.759,158.849 300.760,159.659 300.676 C 160.470 300.591,159.902 300.521,158.398 300.519 C 156.895 300.517,156.231 300.586,156.925 300.673 M176.660 300.675 C 177.466 300.759,178.784 300.759,179.590 300.675 C 180.396 300.591,179.736 300.522,178.125 300.522 C 176.514 300.522,175.854 300.591,176.660 300.675 M197.159 300.673 C 197.853 300.759,199.083 300.760,199.894 300.676 C 200.704 300.591,200.137 300.521,198.633 300.519 C 197.129 300.517,196.466 300.586,197.159 300.673 M217.090 300.673 C 217.788 300.760,218.931 300.760,219.629 300.673 C 220.327 300.587,219.756 300.516,218.359 300.516 C 216.963 300.516,216.392 300.587,217.090 300.673 M233.097 300.673 C 233.790 300.759,235.021 300.760,235.831 300.676 C 236.642 300.591,236.074 300.521,234.570 300.519 C 233.066 300.517,232.403 300.586,233.097 300.673 M252.237 300.673 C 252.931 300.759,254.161 300.760,254.972 300.676 C 255.782 300.591,255.215 300.521,253.711 300.519 C 252.207 300.517,251.544 300.586,252.237 300.673 M303.592 300.682 C 305.889 300.751,309.756 300.751,312.185 300.682 C 314.614 300.614,312.734 300.557,308.008 300.557 C 303.281 300.557,301.294 300.613,303.592 300.682 M324.690 300.680 C 326.131 300.755,328.592 300.755,330.159 300.681 C 331.726 300.607,330.547 300.545,327.539 300.545 C 324.531 300.544,323.249 300.605,324.690 300.680 M155.253 313.672 C 155.253 320.654,155.306 323.511,155.370 320.020 C 155.435 316.528,155.435 310.815,155.370 307.324 C 155.306 303.833,155.253 306.689,155.253 313.672 M215.409 313.672 C 215.409 320.654,215.462 323.511,215.527 320.020 C 215.591 316.528,215.591 310.815,215.527 307.324 C 215.462 303.833,215.409 306.689,215.409 313.672 M181.391 305.078 C 181.391 307.119,181.457 307.954,181.537 306.934 C 181.618 305.913,181.618 304.243,181.537 303.223 C 181.457 302.202,181.391 303.037,181.391 305.078 M124.707 304.967 C 125.298 305.057,126.265 305.057,126.855 304.967 C 127.446 304.878,126.963 304.805,125.781 304.805 C 124.600 304.805,124.116 304.878,124.707 304.967 M307.343 304.978 C 309.125 305.051,311.938 305.051,313.593 304.978 C 315.248 304.904,313.789 304.845,310.352 304.846 C 306.914 304.846,305.560 304.906,307.343 304.978 M329.004 304.967 C 329.595 305.057,330.562 305.057,331.152 304.967 C 331.743 304.878,331.260 304.805,330.078 304.805 C 328.896 304.805,328.413 304.878,329.004 304.967 M176.336 318.945 C 176.336 323.242,176.393 325.053,176.463 322.970 C 176.533 320.887,176.533 317.371,176.463 315.157 C 176.394 312.944,176.336 314.648,176.336 318.945 M56.731 314.844 C 56.731 315.596,56.812 315.903,56.910 315.527 C 57.008 315.151,57.008 314.536,56.910 314.160 C 56.812 313.784,56.731 314.092,56.731 314.844 M307.536 315.915 C 308.995 315.990,311.280 315.990,312.614 315.914 C 313.948 315.838,312.754 315.776,309.961 315.777 C 307.168 315.777,306.077 315.840,307.536 315.915 M56.769 320.117 C 56.771 321.621,56.841 322.188,56.926 321.378 C 57.010 320.568,57.009 319.337,56.923 318.644 C 56.836 317.950,56.767 318.613,56.769 320.117 M196.402 320.993 C 197.753 321.069,199.863 321.069,201.090 320.991 C 202.316 320.914,201.211 320.851,198.633 320.852 C 196.055 320.853,195.051 320.916,196.402 320.993 M251.871 320.993 C 253.222 321.069,255.331 321.069,256.558 320.991 C 257.785 320.914,256.680 320.851,254.102 320.852 C 251.523 320.853,250.520 320.916,251.871 320.993 " stroke="none" fill="#737472" fill-rule="evenodd"></path><path id="path4" d="M236.049 136.914 C 236.052 137.988,236.128 138.381,236.218 137.788 C 236.308 137.194,236.305 136.315,236.212 135.834 C 236.120 135.354,236.046 135.840,236.049 136.914 M174.503 146.766 C 175.196 146.853,176.427 146.854,177.237 146.769 C 178.048 146.685,177.480 146.614,175.977 146.613 C 174.473 146.611,173.810 146.680,174.503 146.766 M204.785 216.303 C 205.806 216.383,207.476 216.383,208.496 216.303 C 209.517 216.222,208.682 216.156,206.641 216.156 C 204.600 216.156,203.765 216.222,204.785 216.303 M303.271 260.742 C 303.272 263.105,303.336 264.022,303.414 262.779 C 303.492 261.536,303.491 259.602,303.412 258.482 C 303.334 257.362,303.270 258.379,303.271 260.742 M288.184 276.448 C 288.667 276.541,289.458 276.541,289.941 276.448 C 290.425 276.354,290.029 276.278,289.063 276.278 C 288.096 276.278,287.700 276.354,288.184 276.448 M291.704 276.448 C 292.190 276.542,292.893 276.538,293.266 276.440 C 293.640 276.342,293.242 276.266,292.383 276.270 C 291.523 276.275,291.218 276.355,291.704 276.448 M297.574 276.461 C 298.925 276.538,301.034 276.537,302.261 276.460 C 303.488 276.383,302.383 276.320,299.805 276.321 C 297.227 276.322,296.223 276.385,297.574 276.461 M82.957 304.297 C 82.957 306.553,83.022 307.476,83.100 306.348 C 83.179 305.220,83.179 303.374,83.100 302.246 C 83.022 301.118,82.957 302.041,82.957 304.297 M56.775 303.711 C 56.776 305.430,56.845 306.084,56.927 305.165 C 57.010 304.247,57.009 302.840,56.925 302.040 C 56.841 301.240,56.773 301.992,56.775 303.711 M304.431 308.398 C 304.432 310.117,304.501 310.772,304.583 309.853 C 304.666 308.934,304.665 307.528,304.581 306.728 C 304.497 305.928,304.429 306.680,304.431 308.398 M88.388 314.063 C 88.388 315.029,88.464 315.425,88.557 314.941 C 88.650 314.458,88.650 313.667,88.557 313.184 C 88.464 312.700,88.388 313.096,88.388 314.063 M304.428 319.141 C 304.428 320.752,304.497 321.411,304.581 320.605 C 304.666 319.800,304.666 318.481,304.581 317.676 C 304.497 316.870,304.428 317.529,304.428 319.141 M58.301 326.842 C 58.892 326.932,59.858 326.932,60.449 326.842 C 61.040 326.753,60.557 326.680,59.375 326.680 C 58.193 326.680,57.710 326.753,58.301 326.842 M78.809 326.845 C 79.507 326.932,80.649 326.932,81.348 326.845 C 82.046 326.758,81.475 326.688,80.078 326.688 C 78.682 326.688,78.110 326.758,78.809 326.845 M120.996 326.852 C 122.339 326.928,124.536 326.928,125.879 326.852 C 127.222 326.775,126.123 326.713,123.438 326.713 C 120.752 326.713,119.653 326.775,120.996 326.852 M156.738 326.842 C 157.329 326.932,158.296 326.932,158.887 326.842 C 159.478 326.753,158.994 326.680,157.813 326.680 C 156.631 326.680,156.147 326.753,156.738 326.842 M177.832 326.842 C 178.423 326.932,179.390 326.932,179.980 326.842 C 180.571 326.753,180.088 326.680,178.906 326.680 C 177.725 326.680,177.241 326.753,177.832 326.842 M187.988 326.842 C 188.579 326.932,189.546 326.932,190.137 326.842 C 190.728 326.753,190.244 326.680,189.063 326.680 C 187.881 326.680,187.397 326.753,187.988 326.842 M206.144 326.844 C 206.837 326.931,208.068 326.932,208.878 326.848 C 209.688 326.763,209.121 326.692,207.617 326.691 C 206.113 326.689,205.450 326.758,206.144 326.844 M216.895 326.842 C 217.485 326.932,218.452 326.932,219.043 326.842 C 219.634 326.753,219.150 326.680,217.969 326.680 C 216.787 326.680,216.304 326.753,216.895 326.842 M233.697 326.843 C 234.291 326.933,235.169 326.930,235.650 326.837 C 236.130 326.745,235.645 326.671,234.570 326.674 C 233.496 326.677,233.103 326.753,233.697 326.843 M243.659 326.846 C 244.361 326.933,245.416 326.931,246.003 326.842 C 246.590 326.752,246.016 326.681,244.727 326.684 C 243.438 326.686,242.957 326.759,243.659 326.846 M262.012 326.845 C 262.710 326.932,263.853 326.932,264.551 326.845 C 265.249 326.758,264.678 326.688,263.281 326.688 C 261.885 326.688,261.313 326.758,262.012 326.845 M289.556 326.843 C 290.150 326.933,291.029 326.930,291.509 326.837 C 291.990 326.745,291.504 326.671,290.430 326.674 C 289.355 326.677,288.962 326.753,289.556 326.843 M303.635 326.854 C 305.956 326.923,309.647 326.923,311.838 326.854 C 314.028 326.784,312.129 326.728,307.617 326.728 C 303.105 326.728,301.313 326.785,303.635 326.854 M323.340 326.845 C 324.038 326.932,325.181 326.932,325.879 326.845 C 326.577 326.758,326.006 326.688,324.609 326.688 C 323.213 326.688,322.642 326.758,323.340 326.845 M338.184 326.845 C 338.882 326.932,340.024 326.932,340.723 326.845 C 341.421 326.758,340.850 326.688,339.453 326.688 C 338.057 326.688,337.485 326.758,338.184 326.845 " stroke="none" fill="#c6c5c5" fill-rule="evenodd"></path></g></svg>